<?xml version="1.0" encoding="UTF-8" standalone="no"?>
<svg
   xmlns:dc="http://purl.org/dc/elements/1.1/"
   xmlns:cc="http://creativecommons.org/ns#"
   xmlns:rdf="http://www.w3.org/1999/02/22-rdf-syntax-ns#"
   xmlns:svg="http://www.w3.org/2000/svg"
   xmlns="http://www.w3.org/2000/svg"
   xmlns:sodipodi="http://sodipodi.sourceforge.net/DTD/sodipodi-0.dtd"
   xmlns:inkscape="http://www.inkscape.org/namespaces/inkscape"
   xml:space="preserve"
   viewBox="0 0 32 32"
   version="1.1"
   id="svg4"
   sodipodi:docname="ttr.svg"
   width="32"
   height="32"
   inkscape:version="0.92.5 (2060ec1f9f, 2020-04-08)"><metadata
   id="metadata10"><rdf:RDF><cc:Work
       rdf:about=""><dc:format>image/svg+xml</dc:format><dc:type
         rdf:resource="http://purl.org/dc/dcmitype/StillImage" /><dc:title></dc:title></cc:Work></rdf:RDF></metadata><defs
   id="defs8" /><sodipodi:namedview
   pagecolor="#ffffff"
   bordercolor="#666666"
   borderopacity="1"
   objecttolerance="10"
   gridtolerance="10"
   guidetolerance="10"
   inkscape:pageopacity="0"
   inkscape:pageshadow="2"
   inkscape:window-width="1368"
   inkscape:window-height="746"
   id="namedview6"
   showgrid="false"
   fit-margin-top="0"
   fit-margin-left="0"
   fit-margin-right="0"
   fit-margin-bottom="0"
   inkscape:zoom="9.2549016"
   inkscape:cx="11.423545"
   inkscape:cy="26.899828"
   inkscape:window-x="72"
   inkscape:window-y="27"
   inkscape:window-maximized="1"
   inkscape:current-layer="svg4" />
  <path
   d="m 28.723949,9.7147333 c 0.0195,0.2821098 0.0195,0.5642097 0.0195,0.8489197 0,8.67503 -6.604103,18.67999 -18.679992,18.67999 v -0.005 C 6.4962015,29.243643 3.0030469,28.221823 0,26.295193 c 0.5187081,0.0624 1.0400163,0.0936 1.5626244,0.0949 2.9562462,0.003 5.8279911,-0.98932 8.1537276,-2.81585 -2.8093441,-0.0533 -5.2728826,-1.88503 -6.133496,-4.55917 0.9841154,0.1898 1.9981312,0.1508 2.9640463,-0.1131 C 3.4840544,18.283173 1.28052,15.592133 1.28052,12.466883 v -0.0832 c 0.9126143,0.5083 1.9344302,0.79041 2.9796466,0.82161 -2.8847451,-1.92793 -3.773959,-5.7655893 -2.0319318,-8.7660401 3.3332521,4.1015708 8.2512292,6.5950101 13.5306112,6.8589101 -0.529108,-2.2802393 0.193703,-4.6696701 1.89933,-6.2726001 2.644241,-2.48564 6.803006,-2.35824 9.288645,0.28471 1.470323,-0.28991 2.879545,-0.82942 4.169165,-1.59383 -0.490107,1.51972 -1.515823,2.81065 -2.886045,3.6309608 C 29.531261,7.1940029 30.802681,6.8455929 32,6.3138829 31.118586,7.6347037 30.008369,8.7852237 28.723949,9.7147333 Z"
   id="path2"
   inkscape:connector-curvature="0"
   style="fill:#1d9bf0;stroke-width:0.13000204" />
</svg>